<svg width="60" height="60" viewBox="0 0 60 60" fill="none" xmlns="http://www.w3.org/2000/svg">
<path d="M8.41667 5.98333L7.76667 5.33333C7.11667 4.68333 6.06667 4.7 5.43333 5.33333L5.41667 5.35C4.76667 6 4.76667 7.05 5.41667 7.68333L6.06667 8.33333C6.71667 8.98333 7.75 8.98333 8.4 8.33333L8.41667 8.31667C9.06667 7.68333 9.06667 6.61667 8.41667 5.98333Z" fill="white"/>
<path d="M3.35 16.5833H1.65C0.733333 16.5833 0 17.3167 0 18.2333V18.25C0 19.1667 0.733333 19.9 1.65 19.9H3.33333C4.26667 19.9167 5 19.1833 5 18.2667V18.25C5 17.3167 4.26667 16.5833 3.35 16.5833Z" fill="white"/>
<path d="M18.35 0H18.3333C17.4 0 16.6667 0.733333 16.6667 1.65V3.25C16.6667 4.16667 17.4 4.9 18.3167 4.9H18.3333C19.2667 4.91667 20 4.18333 20 3.26667V1.65C20 0.733333 19.2667 0 18.35 0Z" fill="white"/>
<path d="M31.25 5.35C30.6 4.7 29.55 4.7 28.9 5.33333L28.25 5.98333C27.6 6.63333 27.6 7.68333 28.25 8.31667L28.2667 8.33333C28.9167 8.98333 29.9667 8.98333 30.6 8.33333L31.25 7.68333C31.9 7.03333 31.9 6 31.25 5.35Z" fill="white"/>
<path d="M18.3333 8.25C12.8167 8.25 8.33333 12.7333 8.33333 18.25C8.33333 21.8259 10.2171 24.9677 13.0449 26.7356C14.3981 22.8157 18.1202 20 22.5 20C22.6724 20 22.8437 20.0044 23.0139 20.013C23.7359 17.4507 25.1818 15.1918 27.117 13.4712C25.4197 10.3623 22.12 8.25 18.3333 8.25Z" fill="white"/>
<path d="M5.41667 31.15C6.06667 31.8 7.11667 31.8 7.76667 31.15L8.41667 30.5C9.06667 29.85 9.05 28.8 8.41667 28.1667L8.4 28.15C7.75 27.5 6.7 27.5 6.05 28.15L5.4 28.8C4.76667 29.4667 4.76667 30.5 5.41667 31.15Z" fill="white"/>
<path d="M17.5 47.5H50C55.5228 47.5 60 43.0228 60 37.5C60 32.8096 56.7708 28.8734 52.4143 27.7934C52.4709 27.2867 52.5 26.7718 52.5 26.25C52.5 18.6561 46.3439 12.5 38.75 12.5C32.4514 12.5 27.142 16.7351 25.5139 22.513C25.3437 22.5044 25.1724 22.5 25 22.5C19.4772 22.5 15 26.9772 15 32.5C15 32.6419 15.003 32.7832 15.0088 32.9237C12.0912 33.9508 10 36.7312 10 40C10 44.1421 13.3579 47.5 17.5 47.5Z" fill="white"/>
<path d="M26.1207 60H28.8793L28.6034 56.9444L31.1207 58.7153L32.5 56.2847L29.7414 55L32.5 53.7153L31.1207 51.2847L28.6034 53.0556L28.8793 50H26.1207L26.3966 53.0556L23.8793 51.2847L22.5 53.7153L25.2586 55L22.5 56.2847L23.8793 58.7153L26.3966 56.9444L26.1207 60Z" fill="white"/>
<path d="M43.8793 60H41.1207L41.3966 56.9444L38.8793 58.7153L37.5 56.2847L40.2586 55L37.5 53.7153L38.8793 51.2847L41.3966 53.0556L41.1207 50H43.8793L43.6034 53.0556L46.1207 51.2847L47.5 53.7153L44.7414 55L47.5 56.2847L46.1207 58.7153L43.6034 56.9444L43.8793 60Z" fill="white"/>
</svg>
